<?xml version="1.0" encoding="UTF-8"?><svg xmlns="http://www.w3.org/2000/svg" viewBox="0 0 1587.9 230.11"><defs><style>.i{fill:none;stroke:#000;stroke-miterlimit:10;stroke-width:30px;}</style></defs><g id="a"/><g id="b"><g id="c"><path d="M154.65,206.94l-6.59-13.52c-10.17,4.31-21.34,6.69-33.05,6.69-46.87,0-85-38.13-85-85S68.13,30.11,115,30.11s85,38.13,85,85c0,18.55-5.99,35.72-16.11,49.71l26.13,15c12.6-18.45,19.98-40.73,19.98-64.71C230,51.7,178.41,.11,115,.11S0,51.7,0,115.11s51.59,115,115,115c16.42,0,32.05-3.47,46.19-9.7l-6.55-13.47Z"/></g><g id="d"><path d="M506,.11V114.11h-.03c0,.33,.03,.66,.03,1,0,46.87-38.13,85-85,85s-85-38.13-85-85c0-.34,.02-.67,.03-1h-.03V.11h-30V115.11c0,63.41,51.59,115,115,115s115-51.59,115-115V.11h-30Z"/></g><g id="e"><line class="i" x1="651" y1=".11" x2="651" y2="230.11"/></g><g id="f"><polygon points="996 218.4 996 .11 966 .11 966 185.66 796 .14 796 .11 795.97 .11 766 .11 766 11.81 766 230.11 796 230.11 796 44.55 966 230.07 966 230.11 966.03 230.11 996 230.11 996 218.4"/></g><g id="g"><path d="M1186,30.11c.1,0,.19,0,.29,0h114.71V.11h-115c-63.41,0-115,51.59-115,115s51.59,115,115,115h115v-30h-114.71c-.1,0-.19,0-.29,0-46.87,0-85-38.13-85-85s38.13-85,85-85Z"/></g><g id="h"><polygon points="1566.69 .2 1473 93.89 1379.11 0 1357.89 21.21 1451.79 115.11 1358.1 208.8 1379.31 230.01 1587.9 21.41 1566.69 .2"/></g></g></svg>