<?xml version="1.0" encoding="utf-8"?>
<!-- Generator: Adobe Illustrator 26.2.1, SVG Export Plug-In . SVG Version: 6.00 Build 0)  -->
<svg version="1.1" id="레이어_1" xmlns="http://www.w3.org/2000/svg" xmlns:xlink="http://www.w3.org/1999/xlink" x="0px"
	 y="0px" viewBox="0 0 1729.1 368.5" style="enable-background:new 0 0 1729.1 368.5;" xml:space="preserve">
<style type="text/css">
	.st0{clip-path:url(#SVGID_00000146501858878006073340000007389750787219288727_);}
	.st1{clip-path:url(#SVGID_00000080910000763029733450000001956694222980190851_);}
	.st2{clip-path:url(#SVGID_00000066478073416663280460000004233405596113359279_);}
	.st3{clip-path:url(#SVGID_00000020381926076478960270000004806043528387003281_);}
	
		.st4{clip-path:url(#SVGID_00000049919609082780164330000006809673826645318790_);fill:none;stroke:#000000;stroke-width:30;stroke-miterlimit:10;}
	.st5{clip-path:url(#SVGID_00000172434519197026780170000002121860239145762710_);}
	.st6{clip-path:url(#SVGID_00000078022861580204656490000004055397792514808466_);}
	.st7{clip-path:url(#SVGID_00000005247832999146574620000011283425821506147731_);}
	.st8{clip-path:url(#SVGID_00000108987120916108391310000013054847852327038097_);}
</style>
<g>
	<g>
		<g>
			<defs>
				<rect id="SVGID_1_" x="-46.3" y="-357" width="1920" height="1080"/>
			</defs>
			<clipPath id="SVGID_00000052790109908689497470000011129753654909876102_">
				<use xlink:href="#SVGID_1_"  style="overflow:visible;"/>
			</clipPath>
			<g style="clip-path:url(#SVGID_00000052790109908689497470000011129753654909876102_);">
				<g>
					<defs>
						<rect id="SVGID_00000108285114939261536210000007477691361969926807_" x="-46.3" y="-357" width="1920" height="1080"/>
					</defs>
					<clipPath id="SVGID_00000073695162976275858050000011028602921083306938_">
						<use xlink:href="#SVGID_00000108285114939261536210000007477691361969926807_"  style="overflow:visible;"/>
					</clipPath>
					<path style="clip-path:url(#SVGID_00000073695162976275858050000011028602921083306938_);" d="M227.3,274.8l-6.6-13.5
						c-10.2,4.3-21.3,6.7-33.1,6.7c-46.9,0-85-38.1-85-85s38.1-85,85-85s85,38.1,85,85c0,18.5-6,35.7-16.1,49.7l26.1,15
						c12.6-18.4,20-40.7,20-64.7c0-63.4-51.6-115-115-115s-115,51.6-115,115s51.6,115,115,115c16.4,0,32-3.5,46.2-9.7L227.3,274.8z"
						/>
				</g>
			</g>
		</g>
		<g>
			<defs>
				<rect id="SVGID_00000090254055748215223820000000283565465756169089_" x="-46.3" y="-357" width="1920" height="1080"/>
			</defs>
			<clipPath id="SVGID_00000150096109595201807210000007463654288106485150_">
				<use xlink:href="#SVGID_00000090254055748215223820000000283565465756169089_"  style="overflow:visible;"/>
			</clipPath>
			<g style="clip-path:url(#SVGID_00000150096109595201807210000007463654288106485150_);">
				<g>
					<defs>
						<rect id="SVGID_00000078755498896876460860000006249192496467183037_" x="-46.3" y="-357" width="1920" height="1080"/>
					</defs>
					<clipPath id="SVGID_00000090285289161915692320000009072038353884203140_">
						<use xlink:href="#SVGID_00000078755498896876460860000006249192496467183037_"  style="overflow:visible;"/>
					</clipPath>
					<path style="clip-path:url(#SVGID_00000090285289161915692320000009072038353884203140_);" d="M578.7,68v114l0,0
						c0,0.3,0,0.7,0,1c0,46.9-38.1,85-85,85s-85-38.1-85-85c0-0.3,0-0.7,0-1l0,0V68h-30v115c0,63.4,51.6,115,115,115
						s115-51.6,115-115V68H578.7z"/>
				</g>
			</g>
		</g>
		<g>
			<defs>
				<rect id="SVGID_00000013891736350455774300000005787749206372607406_" x="-46.3" y="-357" width="1920" height="1080"/>
			</defs>
			<clipPath id="SVGID_00000036249762609886000270000005248934216332018317_">
				<use xlink:href="#SVGID_00000013891736350455774300000005787749206372607406_"  style="overflow:visible;"/>
			</clipPath>
			
				<line style="clip-path:url(#SVGID_00000036249762609886000270000005248934216332018317_);fill:none;stroke:#000000;stroke-width:30;stroke-miterlimit:10;" x1="723.7" y1="68" x2="723.7" y2="298"/>
		</g>
		<g>
			<defs>
				<rect id="SVGID_00000170991498355549194140000017425905054855239054_" x="-46.3" y="-357" width="1920" height="1080"/>
			</defs>
			<clipPath id="SVGID_00000072245715661207222570000017547545196023480741_">
				<use xlink:href="#SVGID_00000170991498355549194140000017425905054855239054_"  style="overflow:visible;"/>
			</clipPath>
			<polygon style="clip-path:url(#SVGID_00000072245715661207222570000017547545196023480741_);" points="1068.7,286.3 1068.7,68 
				1038.7,68 1038.7,253.6 868.7,68 868.7,68 868.6,68 838.7,68 838.7,79.7 838.7,298 868.7,298 868.7,112.4 1038.7,298 1038.7,298 
				1038.7,298 1068.7,298 			"/>
		</g>
		<g>
			<defs>
				<rect id="SVGID_00000003063503137234575820000007514226461621385400_" x="-46.3" y="-357" width="1920" height="1080"/>
			</defs>
			<clipPath id="SVGID_00000152263813637858425780000003197495314799001515_">
				<use xlink:href="#SVGID_00000003063503137234575820000007514226461621385400_"  style="overflow:visible;"/>
			</clipPath>
			<g style="clip-path:url(#SVGID_00000152263813637858425780000003197495314799001515_);">
				<g>
					<defs>
						<rect id="SVGID_00000052101909050376638880000017849406456472516524_" x="-46.3" y="-357" width="1920" height="1080"/>
					</defs>
					<clipPath id="SVGID_00000078014904006726767890000015531263094002199722_">
						<use xlink:href="#SVGID_00000052101909050376638880000017849406456472516524_"  style="overflow:visible;"/>
					</clipPath>
					<path style="clip-path:url(#SVGID_00000078014904006726767890000015531263094002199722_);" d="M1258.7,98c0.1,0,0.2,0,0.3,0
						l0,0h114.7V68h-115c-63.4,0-115,51.6-115,115s51.6,115,115,115h115v-30H1259l0,0c-0.1,0-0.2,0-0.3,0c-46.9,0-85-38.1-85-85
						S1211.8,98,1258.7,98"/>
				</g>
			</g>
		</g>
		<g>
			<defs>
				<rect id="SVGID_00000086690777786991002040000002366049751686990771_" x="-46.3" y="-357" width="1920" height="1080"/>
			</defs>
			<clipPath id="SVGID_00000181047002857571348190000010063412434868936334_">
				<use xlink:href="#SVGID_00000086690777786991002040000002366049751686990771_"  style="overflow:visible;"/>
			</clipPath>
			<polygon style="clip-path:url(#SVGID_00000181047002857571348190000010063412434868936334_);" points="1639.4,68.1 1545.7,161.8 
				1451.8,67.9 1430.6,89.1 1524.5,183 1430.8,276.7 1452,297.9 1660.6,89.3 			"/>
		</g>
		<g>
			<defs>
				<rect id="SVGID_00000070840009332289564710000016263897516413732525_" x="-46.3" y="-357" width="1920" height="1080"/>
			</defs>
			<clipPath id="SVGID_00000080891473999390210280000003324790559757051561_">
				<use xlink:href="#SVGID_00000070840009332289564710000016263897516413732525_"  style="overflow:visible;"/>
			</clipPath>
		</g>
		<g>
			<defs>
				<rect id="SVGID_00000181055292030212391560000004947151796523667075_" x="-46.3" y="-357" width="1920" height="1080"/>
			</defs>
			<clipPath id="SVGID_00000048474542015139091120000002107823102461150115_">
				<use xlink:href="#SVGID_00000181055292030212391560000004947151796523667075_"  style="overflow:visible;"/>
			</clipPath>
		</g>
	</g>
</g>
</svg>
