<?xml version="1.0" encoding="utf-8"?>
<!-- Generator: Adobe Illustrator 26.2.1, SVG Export Plug-In . SVG Version: 6.00 Build 0)  -->
<svg version="1.1" id="레이어_1" xmlns="http://www.w3.org/2000/svg" xmlns:xlink="http://www.w3.org/1999/xlink" x="0px"
	 y="0px" viewBox="0 0 1729.1 368.5" style="enable-background:new 0 0 1729.1 368.5;" xml:space="preserve">
<style type="text/css">
	.st0{fill:#FFFFFF;}
	.st1{clip-path:url(#SVGID_00000085220566466781106670000000680527407963976371_);}
	.st2{clip-path:url(#SVGID_00000181070212081875365460000005731529918774404481_);}
	.st3{clip-path:url(#SVGID_00000180343358129570825290000004758076853657274545_);}
	
		.st4{clip-path:url(#SVGID_00000085220566466781106670000000680527407963976371_);fill:none;stroke:#000000;stroke-width:30;stroke-miterlimit:10;}
	.st5{clip-path:url(#SVGID_00000012471217454284519770000001984274582200001706_);}
</style>
<path class="st0" d="M1684.7,368.3H43.9c-24.1,0-43.6-19.5-43.6-43.6V43.9c0-24.1,19.5-43.6,43.6-43.6h1640.8
	c24.1,0,43.6,19.5,43.6,43.6v280.8C1728.3,348.8,1708.8,368.3,1684.7,368.3z"/>
<g>
	<g>
		<defs>
			<rect id="SVGID_1_" x="-46.3" y="-357" width="1920" height="1080"/>
		</defs>
		<clipPath id="SVGID_00000165916518254165078150000004380983665750791577_">
			<use xlink:href="#SVGID_1_"  style="overflow:visible;"/>
		</clipPath>
		<g style="clip-path:url(#SVGID_00000165916518254165078150000004380983665750791577_);">
			<defs>
				<rect id="SVGID_00000169526746235898679210000010663499742208802176_" x="-46.3" y="-357" width="1920" height="1080"/>
			</defs>
			<clipPath id="SVGID_00000072968964445927426120000007411560510335632528_">
				<use xlink:href="#SVGID_00000169526746235898679210000010663499742208802176_"  style="overflow:visible;"/>
			</clipPath>
			<path style="clip-path:url(#SVGID_00000072968964445927426120000007411560510335632528_);" d="M227.3,274.8l-6.6-13.5
				c-10.2,4.3-21.3,6.7-33.1,6.7c-46.9,0-85-38.1-85-85c0-46.9,38.1-85,85-85c46.9,0,85,38.1,85,85c0,18.5-6,35.7-16.1,49.7l26.1,15
				c12.6-18.4,20-40.7,20-64.7c0-63.4-51.6-115-115-115c-63.4,0-115,51.6-115,115s51.6,115,115,115c16.4,0,32-3.5,46.2-9.7
				L227.3,274.8z"/>
		</g>
		<g style="clip-path:url(#SVGID_00000165916518254165078150000004380983665750791577_);">
			<defs>
				<rect id="SVGID_00000088100150135345372350000013546400306527562930_" x="-46.3" y="-357" width="1920" height="1080"/>
			</defs>
			<clipPath id="SVGID_00000140730726263964193920000002583253734495529605_">
				<use xlink:href="#SVGID_00000088100150135345372350000013546400306527562930_"  style="overflow:visible;"/>
			</clipPath>
			<path style="clip-path:url(#SVGID_00000140730726263964193920000002583253734495529605_);" d="M578.7,68v114h0c0,0.3,0,0.7,0,1
				c0,46.9-38.1,85-85,85s-85-38.1-85-85c0-0.3,0-0.7,0-1h0V68h-30v115c0,63.4,51.6,115,115,115s115-51.6,115-115V68H578.7z"/>
		</g>
		
			<line style="clip-path:url(#SVGID_00000165916518254165078150000004380983665750791577_);fill:none;stroke:#000000;stroke-width:30;stroke-miterlimit:10;" x1="723.7" y1="68" x2="723.7" y2="298"/>
		<polygon style="clip-path:url(#SVGID_00000165916518254165078150000004380983665750791577_);" points="1068.7,286.3 1068.7,68 
			1038.7,68 1038.7,253.6 868.7,68 868.7,68 868.6,68 838.7,68 838.7,79.7 838.7,298 868.7,298 868.7,112.4 1038.7,298 1038.7,298 
			1038.7,298 1068.7,298 		"/>
		<g style="clip-path:url(#SVGID_00000165916518254165078150000004380983665750791577_);">
			<defs>
				<rect id="SVGID_00000060027222883147019880000008971978019857694095_" x="-46.3" y="-357" width="1920" height="1080"/>
			</defs>
			<clipPath id="SVGID_00000132807485282442088930000004395706611721577909_">
				<use xlink:href="#SVGID_00000060027222883147019880000008971978019857694095_"  style="overflow:visible;"/>
			</clipPath>
			<path style="clip-path:url(#SVGID_00000132807485282442088930000004395706611721577909_);" d="M1258.7,98c0.1,0,0.2,0,0.3,0v0
				h114.7V68h-115c-63.4,0-115,51.6-115,115s51.6,115,115,115h115v-30H1259v0c-0.1,0-0.2,0-0.3,0c-46.9,0-85-38.1-85-85
				S1211.8,98,1258.7,98"/>
		</g>
		<polygon style="clip-path:url(#SVGID_00000165916518254165078150000004380983665750791577_);" points="1639.4,68.1 1545.7,161.8 
			1451.8,67.9 1430.6,89.1 1524.5,183 1430.8,276.7 1452,297.9 1660.6,89.3 		"/>
		<g style="clip-path:url(#SVGID_00000165916518254165078150000004380983665750791577_);">
			<defs>
				<rect id="SVGID_00000157997353789455884670000003913787079544221341_" x="-46.3" y="-357" width="1920" height="1080"/>
			</defs>
			<clipPath id="SVGID_00000070107108366569801580000013539259556434580373_">
				<use xlink:href="#SVGID_00000157997353789455884670000003913787079544221341_"  style="overflow:visible;"/>
			</clipPath>
		</g>
		<g style="clip-path:url(#SVGID_00000165916518254165078150000004380983665750791577_);">
			<defs>
				<rect id="SVGID_00000065766128478094665340000010640067844499369603_" x="-46.3" y="-357" width="1920" height="1080"/>
			</defs>
			<clipPath id="SVGID_00000102517652671046890000000011448205337317324980_">
				<use xlink:href="#SVGID_00000065766128478094665340000010640067844499369603_"  style="overflow:visible;"/>
			</clipPath>
		</g>
	</g>
</g>
</svg>
